<?xml version="1.0" standalone="no"?><!-- Generator: Gravit.io --><svg xmlns="http://www.w3.org/2000/svg" xmlns:xlink="http://www.w3.org/1999/xlink" style="isolation:isolate" viewBox="0 0 132 112" width="132" height="112"><defs><clipPath id="_clipPath_ykC71yvzdPtnoUuDLHAVUpE2HE7CXHkG"><rect width="132" height="112"/></clipPath></defs><g clip-path="url(#_clipPath_ykC71yvzdPtnoUuDLHAVUpE2HE7CXHkG)"><path d=" M 12.071 16.451 C -2.081 30.348 -0.01 37.297 -0.01 37.297 C 1.716 45.635 14.488 39.729 35.888 33.475 C 37.959 32.78 40.031 32.433 42.102 31.738 C 40.376 41.813 37.959 52.236 36.924 63.006 C 35.543 79.682 37.959 99.832 60.741 108.865 C 83.868 117.898 115.624 108.518 128.05 76.555 C 140.131 45.635 122.182 21.315 94.913 16.451 C 80.761 14.019 69.716 15.409 56.254 18.536 C 59.36 10.545 60.741 5.681 54.183 1.86 C 46.244 -3.004 26.224 2.554 12.071 16.451 Z  M 95.604 35.907 C 112.517 46.33 114.933 71.344 99.4 85.241 C 83.868 98.79 60.051 94.274 51.421 75.86 C 44.173 60.574 47.97 42.16 52.457 29.653 C 68.335 26.874 82.832 28.264 95.604 35.907 Z  M 44.173 16.104 C 44.173 17.841 43.827 19.578 43.482 21.315 C 33.127 23.747 24.498 26.527 20.356 27.569 C 10.691 30.696 12.071 23.747 12.071 23.747 C 12.071 23.747 13.797 16.799 23.462 10.893 C 35.198 3.249 45.553 2.902 44.173 16.104 Z " fill="rgb(255,255,255)"/></g></svg>